<?xml version="1.0" standalone="no"?>
<!DOCTYPE svg PUBLIC "-//W3C//DTD SVG 20010904//EN"
 "http://www.w3.org/TR/2001/REC-SVG-20010904/DTD/svg10.dtd">
<svg version="1.0" xmlns="http://www.w3.org/2000/svg"
 width="612.000000pt" height="612.000000pt" viewBox="0 0 612.000000 612.000000"
 preserveAspectRatio="xMidYMid meet">
<metadata>
Created by potrace 1.14, written by Peter Selinger 2001-2017
</metadata>
<g transform="translate(0.000000,612.000000) scale(0.100000,-0.100000)"
fill="#000000" stroke="none">
<path d="M3005 5150 c3 -5 8 -10 11 -10 2 0 4 5 4 10 0 6 -5 10 -11 10 -5 0
-7 -4 -4 -10z"/>
<path d="M3376 5151 c5 -5 77 -23 159 -40 166 -34 283 -63 362 -87 29 -10 59
-13 70 -9 23 9 -38 31 -177 64 -52 13 -109 27 -126 32 -17 5 -44 9 -60 9 -16
0 -63 9 -104 20 -80 21 -141 26 -124 11z"/>
<path d="M3081 5132 c-10 -3 -7 -8 10 -18 22 -12 22 -13 4 -15 -17 -1 -16 -2
5 -8 14 -4 32 -4 40 0 8 4 24 11 35 15 16 5 11 9 -23 15 -23 4 -46 10 -50 12
-4 2 -13 2 -21 -1z"/>
<path d="M3241 5126 c-10 -12 -6 -16 31 -23 45 -10 81 -6 73 7 -3 4 -17 10
-32 12 -16 3 -35 8 -44 12 -9 4 -21 1 -28 -8z"/>
<path d="M3380 5100 c0 -13 33 -25 92 -34 26 -4 50 -11 53 -17 4 -5 17 -9 29
-9 13 0 29 -7 36 -15 7 -8 24 -15 39 -15 55 0 371 -129 371 -152 0 -11 -7 -10
-62 7 -57 17 -76 1 -24 -20 42 -18 63 -19 104 -4 27 9 37 8 67 -11 29 -18 38
-20 50 -10 9 8 27 10 46 6 l31 -6 -27 33 c-32 37 -48 45 -91 46 -16 1 -34 5
-40 10 -10 11 -231 85 -284 96 -19 4 -59 18 -88 31 -30 13 -107 35 -173 49
-138 29 -129 28 -129 15z"/>
<path d="M2480 5079 l-65 -19 50 5 c76 9 105 16 105 26 0 12 -13 10 -90 -12z"/>
<path d="M3227 5079 c7 -7 15 -10 18 -7 3 3 -2 9 -12 12 -14 6 -15 5 -6 -5z"/>
<path d="M2388 5053 c7 -3 16 -2 19 1 4 3 -2 6 -13 5 -11 0 -14 -3 -6 -6z"/>
<path d="M2338 5043 c6 -2 18 -2 25 0 6 3 1 5 -13 5 -14 0 -19 -2 -12 -5z"/>
<path d="M2298 5033 c7 -3 16 -2 19 1 4 3 -2 6 -13 5 -11 0 -14 -3 -6 -6z"/>
<path d="M3683 4913 c9 -2 25 -2 35 0 9 3 1 5 -18 5 -19 0 -27 -2 -17 -5z"/>
<path d="M3769 4895 c18 -8 38 -15 45 -15 6 1 -4 7 -23 15 -18 8 -38 15 -45
15 -6 -1 4 -7 23 -15z"/>
<path d="M3295 4880 c-3 -5 -1 -10 4 -10 6 0 11 5 11 10 0 6 -2 10 -4 10 -3 0
-8 -4 -11 -10z"/>
<path d="M2852 4854 c-12 -8 -32 -14 -45 -13 -12 2 -48 -1 -79 -5 -51 -7 -57
-10 -55 -29 2 -24 14 -20 -229 -86 -166 -45 -168 -45 -159 -31 10 16 -3 12
-44 -15 -21 -14 -45 -23 -53 -20 -9 4 -19 2 -23 -4 -3 -6 -22 -11 -42 -11 -20
0 -44 -7 -54 -16 -18 -16 -90 -57 -205 -115 -68 -34 -154 -100 -101 -77 67 28
28 -25 -49 -67 -18 -9 -60 -44 -93 -77 -58 -56 -81 -65 -81 -32 0 8 8 14 19
14 24 0 42 22 32 38 -5 9 -25 -6 -64 -47 -45 -47 -57 -66 -57 -91 0 -41 -43
-114 -76 -129 -52 -23 -155 -296 -213 -561 -38 -176 -43 -227 -42 -475 0 -227
5 -295 27 -395 9 -36 19 -85 24 -110 8 -44 40 -167 58 -225 48 -152 169 -386
290 -560 151 -217 377 -436 620 -598 95 -63 340 -192 349 -183 3 3 -2 8 -11
12 -9 3 -16 10 -16 15 0 12 37 12 45 -1 3 -5 33 -23 65 -41 33 -17 60 -35 60
-39 0 -18 156 -63 270 -77 90 -11 518 -7 555 5 l30 10 -30 2 c-27 1 -28 2 -9
10 11 4 63 8 115 8 92 0 173 13 184 31 3 5 24 12 48 16 76 11 142 27 167 41
14 8 38 18 53 24 16 5 26 14 22 19 -6 10 25 31 44 31 6 0 11 -7 11 -15 0 -24
25 -28 59 -10 17 8 31 18 31 21 0 2 -13 -2 -30 -11 -34 -17 -40 -18 -40 -6 0
8 253 151 267 151 3 0 -1 -7 -8 -16 -12 -14 -11 -16 5 -13 11 2 20 13 22 24 2
11 16 31 32 45 17 14 69 58 117 99 135 115 369 352 385 391 8 19 45 72 81 118
37 46 75 100 84 120 9 21 28 57 41 82 80 143 174 373 174 424 0 30 15 86 31
118 11 22 11 28 0 28 -5 0 -13 -10 -16 -21 -8 -25 -25 -8 -19 20 1 9 6 34 9
56 l7 40 12 -30 c13 -30 13 -29 25 40 7 39 15 102 18 140 2 39 9 82 15 97 13
34 1 145 -17 156 -14 7 -20 49 -16 122 1 42 3 44 16 26 14 -18 15 -17 15 24 0
24 -5 72 -11 108 -10 58 -12 62 -23 40 -13 -24 -4 -94 15 -113 15 -15 10 -35
-10 -35 -14 0 -20 10 -25 38 -3 22 -15 51 -26 65 -23 29 -25 48 -7 66 10 10 8
12 -8 9 -25 -4 -23 -17 16 -157 31 -110 36 -151 19 -151 -6 0 -8 -13 -5 -30 3
-16 1 -30 -4 -30 -10 0 -29 74 -35 135 -4 40 -6 50 -31 115 -7 19 -21 57 -30
83 -9 27 -19 47 -21 45 -2 -2 3 -22 11 -43 8 -22 14 -53 15 -69 0 -16 7 -34
15 -40 11 -8 18 -35 21 -81 3 -39 8 -77 11 -85 15 -40 29 -156 23 -188 -4 -23
-9 -31 -13 -22 -6 17 -25 114 -33 175 -3 22 -16 77 -30 124 -13 46 -24 89 -24
96 0 7 -14 30 -31 51 -32 39 -89 149 -89 171 0 6 8 13 18 16 13 3 10 7 -13 18
-16 7 -32 16 -35 20 -3 3 -15 11 -27 18 -25 13 -32 37 -8 27 8 -3 15 -3 15 0
0 6 -62 117 -80 144 -6 8 -13 22 -16 31 -3 10 -13 15 -23 12 -11 -3 -21 4 -29
21 -10 24 -10 26 10 26 17 0 19 3 10 12 -16 16 -15 28 3 28 8 0 26 -21 41 -47
46 -82 55 -95 62 -88 4 3 2 9 -3 13 -14 10 -37 63 -30 70 3 3 11 0 17 -6 16
-16 28 -15 28 3 0 22 15 18 34 -7 12 -16 11 -11 -3 17 -11 22 -31 55 -45 74
-31 42 -32 55 -6 67 19 9 19 10 -10 54 -29 43 -44 35 -19 -11 15 -29 6 -45
-14 -24 -21 20 -36 12 -18 -9 7 -8 10 -20 6 -26 -3 -5 0 -10 8 -10 16 0 40
-47 32 -61 -4 -5 1 -9 9 -9 10 0 16 -9 16 -25 0 -14 -4 -25 -9 -25 -19 0 -70
51 -89 90 -11 22 -36 57 -55 77 -20 21 -63 68 -97 104 -52 57 -64 65 -88 61
-24 -5 -25 -3 -14 11 22 26 6 50 -74 116 -59 47 -80 59 -90 50 -10 -8 -19 -5
-39 15 -14 14 -25 30 -25 36 0 5 -8 10 -17 10 -13 0 -6 -12 24 -40 34 -32 48
-39 67 -34 27 6 42 -10 26 -28 -6 -7 -17 -22 -25 -33 -14 -20 -15 -20 -21 3
-5 16 -26 33 -69 53 -68 32 -99 59 -77 67 28 9 -191 140 -277 166 -69 20 -102
41 -129 82 -12 19 -28 34 -35 34 -7 0 -18 9 -25 20 -9 14 -23 20 -51 20 -21 0
-56 7 -77 16 -22 9 -52 20 -67 25 -25 7 -27 6 -22 -12 5 -13 2 -19 -10 -19
-38 0 -112 25 -138 47 -16 12 -39 23 -52 23 -31 0 -75 17 -75 29 0 5 9 11 20
14 11 3 20 10 20 16 0 8 -6 7 -20 -1 -16 -10 -24 -10 -41 0 -19 12 -19 11 -9
-8 10 -19 8 -20 -49 -20 -65 0 -160 17 -176 31 -12 12 -52 11 -76 -2 -24 -12
-82 -2 -73 13 4 6 -1 8 -12 5 -62 -18 -84 -18 -90 -3 -8 20 -14 20 -42 0z"/>
<path d="M3594 4813 c8 -9 109 -33 114 -28 4 3 -100 35 -114 35 -4 0 -4 -3 0
-7z"/>
<path d="M4286 4779 c24 -27 64 -93 64 -104 0 -4 -9 -5 -20 -2 -11 3 -18 1
-15 -3 3 -5 -5 -10 -17 -12 -19 -3 -13 -10 39 -43 37 -24 67 -51 74 -67 6 -16
15 -28 20 -28 5 0 24 -25 44 -55 19 -30 38 -55 42 -55 4 0 2 5 -5 12 -17 17
-15 28 4 28 9 0 14 6 12 12 -3 7 -13 13 -23 13 -10 0 -20 6 -22 13 -11 31 75
-6 110 -48 13 -15 32 -31 43 -34 23 -8 84 -90 84 -112 0 -8 5 -25 11 -36 8
-16 8 -22 -2 -28 -9 -6 3 -24 42 -62 30 -30 51 -49 47 -44 -5 6 -8 17 -8 26 0
9 -11 31 -25 50 -30 41 -31 47 -5 55 15 5 18 10 11 24 -13 23 -181 191 -192
191 -5 0 -24 14 -44 31 -34 30 -46 59 -24 59 13 0 81 -50 92 -67 4 -7 21 -13
37 -13 19 0 42 -12 65 -31 19 -17 35 -29 35 -26 0 17 -100 107 -205 182 -143
104 -175 133 -168 151 6 16 -42 38 -68 31 -9 -2 -25 0 -35 6 -17 9 -17 8 2
-14z"/>
<path d="M4060 4779 c0 -5 9 -9 20 -9 11 0 20 -4 20 -10 0 -5 19 -19 43 -30
l42 -21 -34 30 c-37 32 -91 56 -91 40z"/>
<path d="M4200 4770 c0 -12 60 -43 68 -35 8 8 -38 44 -55 45 -7 0 -13 -4 -13
-10z"/>
<path d="M2313 4743 c-7 -2 -13 -9 -13 -14 0 -14 26 -10 40 6 10 12 10 15 -1
14 -8 0 -20 -3 -26 -6z"/>
<path d="M1539 4498 c-27 -29 -57 -70 -67 -90 -10 -22 -24 -38 -34 -38 -10 0
-18 -4 -18 -10 0 -5 5 -10 10 -10 6 0 10 -7 10 -15 0 -28 27 -4 39 35 6 21 33
63 59 92 68 76 76 88 63 88 -6 0 -34 -24 -62 -52z"/>
<path d="M4731 4530 c16 -35 40 -61 50 -54 17 10 9 33 -13 40 -13 4 -29 14
-36 23 -11 13 -11 12 -1 -9z"/>
<path d="M4290 4486 c0 -9 10 -13 25 -12 23 1 24 2 8 14 -22 16 -33 15 -33 -2z"/>
<path d="M4817 4449 c4 -13 8 -18 11 -10 2 7 -1 18 -6 23 -8 8 -9 4 -5 -13z"/>
<path d="M4791 4404 c1 -11 88 -89 92 -83 2 2 -19 24 -45 48 -26 24 -48 40
-47 35z"/>
<path d="M4826 4300 c49 -49 91 -90 93 -90 3 0 -16 22 -42 48 -26 26 -47 55
-47 63 0 9 -11 21 -25 27 -14 7 -28 19 -31 27 -4 8 -13 15 -21 15 -8 0 25 -40
73 -90z"/>
<path d="M4926 4362 c12 -9 24 -24 27 -33 5 -16 67 -66 67 -54 0 11 -93 105
-104 105 -6 0 -2 -8 10 -18z"/>
<path d="M4610 4324 c0 -11 52 -64 62 -64 18 0 6 19 -27 44 -19 15 -35 24 -35
20z"/>
<path d="M1299 4178 c-23 -40 -50 -89 -61 -108 -25 -43 -108 -255 -108 -275 0
-8 -9 -24 -20 -35 -12 -12 -34 -71 -55 -144 -58 -206 -75 -304 -80 -459 -3
-81 5 -112 20 -87 4 6 11 8 16 5 12 -8 12 -52 0 -57 -6 -2 -6 -21 -1 -48 4
-25 10 -83 13 -128 6 -85 17 -125 17 -61 2 210 14 349 31 349 5 0 9 5 9 11 0
5 -5 7 -10 4 -17 -11 -21 18 -11 95 14 108 20 145 41 235 9 44 21 98 24 120
12 70 56 204 102 312 25 58 43 111 40 118 -7 19 20 101 54 167 43 82 29 72
-21 -14z"/>
<path d="M1391 4234 c0 -11 3 -14 6 -6 3 7 2 16 -1 19 -3 4 -6 -2 -5 -13z"/>
<path d="M4984 4221 c22 -26 54 -65 71 -86 9 -11 13 -14 9 -6 -5 11 -3 13 9 8
27 -10 19 12 -8 25 -23 10 -29 20 -26 40 0 4 -8 10 -19 13 -11 4 -20 10 -20
14 0 4 -7 8 -15 8 -13 0 -13 -3 -1 -16z"/>
<path d="M1351 4170 c-8 -19 -25 -50 -38 -67 -13 -18 -22 -33 -19 -33 14 0 35
13 31 20 -3 4 2 13 10 20 8 7 15 21 15 30 0 10 5 20 11 22 6 2 10 13 7 23 -3
16 -6 13 -17 -15z"/>
<path d="M4898 4118 c7 -7 12 -21 12 -31 0 -17 -2 -18 -17 -6 -15 13 -15 12
-4 -8 15 -30 29 -29 37 2 8 33 -1 55 -23 55 -13 0 -14 -3 -5 -12z"/>
<path d="M4995 4120 c3 -5 8 -10 11 -10 2 0 4 5 4 10 0 6 -5 10 -11 10 -5 0
-7 -4 -4 -10z"/>
<path d="M5145 4005 c42 -60 86 -127 97 -148 36 -70 30 -31 -8 52 -22 48 -44
83 -55 86 -11 4 -19 15 -19 26 0 10 -4 19 -9 19 -5 0 -25 17 -46 38 -25 26
-13 4 40 -73z"/>
<path d="M5110 4101 c0 -6 4 -13 10 -16 6 -3 7 1 4 9 -7 18 -14 21 -14 7z"/>
<path d="M5100 3961 c16 -31 32 -36 18 -7 -6 14 -15 26 -20 26 -5 0 -4 -9 2
-19z"/>
<path d="M5057 3926 c-4 -10 -1 -19 9 -23 21 -8 26 1 11 22 -13 16 -14 16 -20
1z"/>
<path d="M5290 3741 c0 -6 4 -13 10 -16 6 -3 7 1 4 9 -7 18 -14 21 -14 7z"/>
<path d="M5120 3721 c0 -6 4 -13 10 -16 6 -3 7 1 4 9 -7 18 -14 21 -14 7z"/>
<path d="M1156 3629 c-8 -42 0 -50 9 -9 4 17 5 34 2 36 -2 3 -7 -10 -11 -27z"/>
<path d="M5295 3570 c9 -16 18 -30 21 -30 2 0 -2 14 -11 30 -9 17 -18 30 -21
30 -2 0 2 -13 11 -30z"/>
<path d="M1137 3533 c-4 -3 -7 -11 -7 -17 0 -6 5 -5 12 2 6 6 9 14 7 17 -3 3
-9 2 -12 -2z"/>
<path d="M5160 3489 c0 -5 5 -7 10 -4 6 3 10 8 10 11 0 2 -4 4 -10 4 -5 0 -10
-5 -10 -11z"/>
<path d="M5170 3450 c0 -5 4 -10 9 -10 6 0 13 5 16 10 3 6 -1 10 -9 10 -9 0
-16 -4 -16 -10z"/>
<path d="M1110 3407 c0 -13 -4 -27 -10 -33 -6 -6 -6 -15 0 -24 5 -8 10 -10 10
-5 0 6 4 27 9 48 5 21 5 37 0 37 -5 0 -9 -10 -9 -23z"/>
<path d="M1066 2804 c-4 -14 -5 -28 -3 -31 3 -2 8 8 11 23 4 14 5 28 3 31 -3
2 -8 -8 -11 -23z"/>
<path d="M980 2756 c0 -8 4 -17 9 -20 5 -4 7 3 4 14 -6 23 -13 26 -13 6z"/>
<path d="M1085 2718 c4 -13 11 -27 16 -32 15 -16 10 -41 -11 -54 -11 -7 -20
-20 -20 -30 -1 -15 -2 -15 -12 2 -8 15 -7 25 7 48 9 16 14 32 10 36 -4 4 -10
2 -12 -5 -2 -7 -10 -10 -16 -7 -14 5 -39 -51 -31 -69 2 -7 16 -17 30 -24 26
-12 25 -13 40 36 4 11 8 11 23 -3 17 -16 18 -15 10 34 -11 67 -18 90 -30 90
-6 0 -7 -10 -4 -22z"/>
<path d="M1040 2495 c0 -53 39 -130 73 -143 18 -7 27 -17 27 -33 0 -22 0 -22
-22 -3 -21 19 -21 19 -13 -1 4 -11 13 -45 19 -76 6 -32 18 -65 27 -75 39 -46
87 -146 108 -229 6 -22 26 -58 45 -80 20 -22 49 -67 65 -100 38 -77 162 -225
284 -340 161 -152 250 -217 135 -99 -37 38 -86 97 -108 132 -23 34 -68 85
-101 114 -32 28 -59 55 -59 60 0 5 6 6 13 2 7 -5 6 0 -3 13 -110 153 -206 310
-217 353 -3 14 -25 66 -48 115 -23 50 -48 108 -55 130 -7 22 -17 43 -22 46 -5
3 -12 35 -14 70 -3 34 -6 65 -9 67 -2 2 -14 -6 -26 -17 -32 -29 -44 -21 -43
27 1 23 -2 39 -7 36 -5 -3 -9 8 -9 24 0 18 -6 32 -16 36 -24 9 -24 9 -24 -29z"/>
<path d="M1126 2481 c-4 -6 3 -15 14 -21 23 -12 27 2 6 19 -9 8 -16 8 -20 2z"/>
<path d="M4645 1280 c3 -5 10 -10 16 -10 5 0 9 5 9 10 0 6 -7 10 -16 10 -8 0
-12 -4 -9 -10z"/>
<path d="M4585 1240 c-3 -6 1 -7 9 -4 18 7 21 14 7 14 -6 0 -13 -4 -16 -10z"/>
<path d="M1910 1195 c0 -2 9 -9 20 -15 16 -9 18 -8 14 5 -5 13 -34 22 -34 10z"/>
<path d="M2030 1126 c0 -2 8 -10 18 -17 15 -13 16 -12 3 4 -13 16 -21 21 -21
13z"/>
<path d="M4453 1067 c-15 -13 -54 -38 -86 -57 -32 -19 -68 -46 -80 -59 -20
-22 -18 -22 23 5 25 16 57 36 72 43 34 18 123 91 110 91 -6 0 -23 -10 -39 -23z"/>
<path d="M4350 1055 c-11 -13 -10 -14 4 -9 9 3 16 10 16 15 0 13 -6 11 -20 -6z"/>
<path d="M4310 1030 c-8 -5 -22 -7 -30 -5 -8 3 -21 -4 -27 -14 -12 -19 -11
-19 25 -4 20 8 41 19 47 24 12 12 4 11 -15 -1z"/>
<path d="M4050 918 c-79 -29 -86 -42 -10 -17 68 23 76 27 69 33 -2 2 -29 -5
-59 -16z"/>
<path d="M2325 900 c3 -5 10 -10 16 -10 5 0 9 5 9 10 0 6 -7 10 -16 10 -8 0
-12 -4 -9 -10z"/>
<path d="M2870 786 c0 -2 11 -6 25 -8 13 -3 22 -1 19 3 -5 9 -44 13 -44 5z"/>
<path d="M2600 770 c0 -5 5 -10 11 -10 5 0 7 5 4 10 -3 6 -8 10 -11 10 -2 0
-4 -4 -4 -10z"/>
<path d="M2670 756 c0 -2 9 -6 20 -9 11 -3 18 -1 14 4 -5 9 -34 13 -34 5z"/>
<path d="M3067 728 c-7 -4 39 -8 102 -8 63 0 112 2 110 4 -8 8 -200 11 -212 4z"/>
<path d="M3136 678 c3 -4 11 -5 19 -1 21 7 19 12 -4 10 -11 0 -18 -5 -15 -9z"/>
</g>
</svg>
